<?xml version="1.0" encoding="UTF-8"?>
<!DOCTYPE svg PUBLIC "-//W3C//DTD SVG 1.1//EN" "http://www.w3.org/Graphics/SVG/1.1/DTD/svg11.dtd">
<!-- Creator: CorelDRAW 2019 (64-Bit) -->
<svg xmlns="http://www.w3.org/2000/svg" xml:space="preserve" width="12.7mm" height="12.7mm" version="1.1" style="shape-rendering:geometricPrecision; text-rendering:geometricPrecision; image-rendering:optimizeQuality; fill-rule:evenodd; clip-rule:evenodd"
viewBox="0 0 140 140"
 xmlns:xlink="http://www.w3.org/1999/xlink"
 xmlns:xodm="http://www.corel.com/coreldraw/odm/2003">
 <defs>
  <style type="text/css">
   <![CDATA[
    .fil0 {fill:#048657}
    .fil1 {fill:white}
   ]]>
  </style>
 </defs>
 <g id="Layer_x0020_1">
  <metadata id="CorelCorpID_0Corel-Layer"/>
  <g id="_2800383319648">
   <path id="Combined-Shape" class="fil0" d="M119.09 20.11c-0.41,-0.39 -0.82,-0.77 -1.23,-1.14l-48.81 67.63 -18.65 -23.8 -30.36 0 -8.53 9.72 15.87 0 37.9 48.99c1.26,1.19 2.52,1.78 3.77,1.78 1.25,0 2.44,-0.6 3.57,-1.78l59.92 -82.9c-0.35,-0.71 -0.7,-1.41 -1.07,-2.11 5.43,9.95 8.52,21.37 8.52,33.51 0,38.66 -31.34,70 -70,70 -38.66,0 -70,-31.34 -70,-70 0,-38.66 31.34,-70 70,-70 19.13,0 36.46,7.67 49.1,20.1z"/>
   <path id="Path-2-Copy-6" class="fil1" d="M11.52 72.52l8.53 -9.72 30.36 0 18.65 23.8 48.81 -67.63c2.91,2.61 5.62,5.58 8.14,8.92 2.52,3.34 4.7,6.91 6.55,10.71l-59.92 82.9c-1.13,1.19 -2.32,1.78 -3.57,1.78 -1.25,0 -2.51,-0.6 -3.77,-1.78l-37.9 -48.99 -15.87 0z"/>
  </g>
 </g>
</svg>
